<?xml version="1.0" encoding="UTF-8" standalone="no"?>
<!-- Created with Inkscape (http://www.inkscape.org/) -->

<svg
   width="491.1391"
   height="315.18158"
   viewBox="0 0 491.13911 315.18158"
   version="1.1"
   id="svg1"
   xmlns:xlink="http://www.w3.org/1999/xlink"
   xmlns="http://www.w3.org/2000/svg"
   xmlns:svg="http://www.w3.org/2000/svg">
  <defs
     id="defs1" />
  <rect
     style="display:inline;fill:#ffffff;stroke-width:6.50288"
     id="rect1"
     width="539.20996"
     height="541.93091"
     x="-22.674934"
     y="-92.513725" />
  <g
     id="layer2"
     style="display:inline"
     transform="translate(-9.0699729,-79.815765)">
    <text
       xml:space="preserve"
       style="font-size:649.301px;fill:none;fill-opacity:1;stroke:#000000;stroke-width:27.054;stroke-opacity:1"
       x="-16.408344"
       y="403.38058"
       id="text31"><tspan
         id="tspan31"
         x="-16.408344"
         y="403.38058"
         style="font-style:normal;font-variant:normal;font-weight:bold;font-stretch:normal;font-size:649.301px;font-family:Corbel;-inkscape-font-specification:'Corbel Bold';fill:#1a1a1a;stroke:none;stroke-width:27.054">m<tspan
   style="font-style:normal;font-variant:normal;font-weight:normal;font-stretch:normal;font-size:1010.02px;font-family:'Californian FB';-inkscape-font-specification:'Californian FB';stroke-width:27.054"
   id="tspan34" /></tspan></text>
    <path
       style="fill:none;fill-opacity:1;stroke:#ffffff;stroke-width:34.23;stroke-dasharray:none;stroke-opacity:1"
       d="m 7.2155398,365.13136 c 0,0 40.2337012,31.30375 75.4841422,29.43225 48.886788,-2.59547 206.069188,-84.8349 420.177038,17.8916"
       id="path32" />
    <path
       style="fill:none;fill-opacity:1;stroke:#ffffff;stroke-width:34.23;stroke-dasharray:none;stroke-opacity:1"
       d="m 6.2728188,404.94899 c 0,0 39.2909792,23.76199 74.5414192,21.89048 48.886792,-2.59547 206.069192,-84.8349 420.177032,17.8916"
       id="path41" />
    <path
       style="fill:#ffffff;fill-opacity:1;stroke:none;stroke-opacity:1"
       id="path2"
       d="m 105.92272,114.70597 c -3.72244,-4.34836 7.28796,-21.850212 7.72728,-27.557382 0.43893,-5.702142 -7.76514,-24.670564 -3.42062,-28.389727 4.34836,-3.722442 21.85021,7.287952 27.55738,7.727273 5.70214,0.438935 24.67056,-7.765142 28.38973,-3.420615 3.72244,4.348358 -7.28795,21.850207 -7.72728,27.557377 -0.43893,5.702142 7.76515,24.670564 3.42062,28.389724 -4.34836,3.72245 -21.85021,-7.28795 -27.55738,-7.72727 -5.70214,-0.43893 -24.67056,7.76514 -28.38973,3.42062 z"
       transform="matrix(-0.64690136,-0.57268755,0.57268755,-0.64690136,337.70205,359.64063)" />
  </g>
  <g
     id="g5"
     style="display:none"
     transform="translate(-9.0699729,-79.815765)">
    <text
       xml:space="preserve"
       style="font-size:649.301px;fill:none;fill-opacity:1;stroke:#000000;stroke-width:27.054;stroke-opacity:1"
       x="-16.408344"
       y="403.38058"
       id="text2"><tspan
         id="tspan2"
         x="-16.408344"
         y="403.38058"
         style="font-style:normal;font-variant:normal;font-weight:bold;font-stretch:normal;font-size:649.301px;font-family:Corbel;-inkscape-font-specification:'Corbel Bold';fill:#1a1a1a;stroke:none;stroke-width:27.054">m<tspan
   style="font-style:normal;font-variant:normal;font-weight:normal;font-stretch:normal;font-size:1010.02px;font-family:'Californian FB';-inkscape-font-specification:'Californian FB';stroke-width:27.054"
   id="tspan1" /></tspan></text>
    <path
       style="fill:none;fill-opacity:1;stroke:#ffffff;stroke-width:34.23;stroke-dasharray:none;stroke-opacity:1"
       d="m 7.2155398,365.13136 c 0,0 40.2337012,31.30375 75.4841422,29.43225 48.886788,-2.59547 206.069188,-84.8349 420.177038,17.8916"
       id="path3" />
    <path
       style="fill:none;fill-opacity:1;stroke:#ffffff;stroke-width:34.23;stroke-dasharray:none;stroke-opacity:1"
       d="m 6.2728188,404.94899 c 0,0 39.2909792,23.76199 74.5414192,21.89048 48.886792,-2.59547 206.069192,-84.8349 420.177032,17.8916"
       id="path4" />
    <text
       xml:space="preserve"
       style="font-style:normal;font-variant:normal;font-weight:normal;font-stretch:normal;font-size:42.6667px;font-family:'Californian FB';-inkscape-font-specification:'Californian FB';letter-spacing:8px;fill:none;fill-opacity:1;stroke:#000000;stroke-opacity:1"
       id="text4"
       transform="translate(4,-14)"><textPath
         xlink:href="#path41"
         id="textPath4"
         style="font-style:normal;font-variant:normal;font-weight:300;font-stretch:normal;font-size:42.6667px;font-family:Corbel;-inkscape-font-specification:'Corbel Light';letter-spacing:8px;fill:#000000;stroke:none">by marc roma</textPath></text>
    <path
       style="fill:#ffffff;fill-opacity:1;stroke:none;stroke-opacity:1"
       id="path5"
       d="m 105.92272,114.70597 c -3.72244,-4.34836 7.28796,-21.850212 7.72728,-27.557382 0.43893,-5.702142 -7.76514,-24.670564 -3.42062,-28.389727 4.34836,-3.722442 21.85021,7.287952 27.55738,7.727273 5.70214,0.438935 24.67056,-7.765142 28.38973,-3.420615 3.72244,4.348358 -7.28795,21.850207 -7.72728,27.557377 -0.43893,5.702142 7.76515,24.670564 3.42062,28.389724 -4.34836,3.72245 -21.85021,-7.28795 -27.55738,-7.72727 -5.70214,-0.43893 -24.67056,7.76514 -28.38973,3.42062 z"
       transform="matrix(-0.64690136,-0.57268755,0.57268755,-0.64690136,337.70205,359.64063)" />
    <text
       xml:space="preserve"
       style="font-style:normal;font-variant:normal;font-weight:normal;font-stretch:normal;font-size:42.6667px;font-family:'Californian FB';-inkscape-font-specification:'Californian FB';letter-spacing:8px;fill:none;fill-opacity:1;stroke:#000000;stroke-opacity:1"
       id="text5"
       transform="translate(4,-14)"><textPath
         xlink:href="#path41"
         id="textPath5"
         style="font-style:normal;font-variant:normal;font-weight:300;font-stretch:normal;font-size:42.6667px;font-family:Corbel;-inkscape-font-specification:'Corbel Light';letter-spacing:8px;fill:#000000;stroke:none">by marc roma</textPath></text>
  </g>
</svg>
